<svg xmlns="http://www.w3.org/2000/svg" viewBox="0 0 24 24" width="24" height="24">
  <title>Sidebar</title>
  <style>
    svg { --ink: #111111; --paper: #ffffff; }
    @media (prefers-color-scheme: dark) {
      svg { --ink: #ffffff; --paper: #111111; }
    }
  </style>
  <g transform="translate(0.25 1)" fill="none" stroke="var(--ink)" stroke-width="1.5" stroke-linejoin="round">
    <path d="M3.25 1.75 H12.25 A2.5 2.5 0 0 1 14.75 4.25 V8.75 A2.5 2.5 0 0 1 12.25 11.25 H7 L3.5 14.75 L4.6 11.25 H3.25 A2.5 2.5 0 0 1 0.75 8.75 V4.25 A2.5 2.5 0 0 1 3.25 1.75 Z"/>
    <path d="M11.75 8.25 H20.25 A2.5 2.5 0 0 1 22.75 10.75 V14.25 A2.5 2.5 0 0 1 20.25 16.75 L21.5 20.25 L17.5 16.75 H11.75 A2.5 2.5 0 0 1 9.25 14.25 V10.75 A2.5 2.5 0 0 1 11.75 8.25 Z" fill="var(--paper)"/>
  </g>
</svg>
